<svg id="wave" style="transform:rotate(0deg); transition: 0.3s" viewBox="0 0 1440 120" version="1.1" xmlns="http://www.w3.org/2000/svg"><defs><linearGradient id="sw-gradient-0" x1="0" x2="0" y1="1" y2="0"><stop stop-color="rgba(252, 191, 73, 1)" offset="0%"></stop><stop stop-color="rgba(252, 191, 73, 1)" offset="100%"></stop></linearGradient></defs><path style="transform:translate(0, 0px); opacity:1" fill="url(#sw-gradient-0)" d="M0,72L48,60C96,48,192,24,288,14C384,4,480,8,576,22C672,36,768,60,864,68C960,76,1056,68,1152,62C1248,56,1344,52,1440,50C1536,48,1632,48,1728,58C1824,68,1920,88,2016,80C2112,72,2208,36,2304,28C2400,20,2496,40,2592,58C2688,76,2784,92,2880,96C2976,100,3072,92,3168,80C3264,68,3360,52,3456,56C3552,60,3648,84,3744,90C3840,96,3936,84,4032,66C4128,48,4224,24,4320,18C4416,12,4512,24,4608,34C4704,44,4800,52,4896,62C4992,72,5088,84,5184,84C5280,84,5376,72,5472,58C5568,44,5664,28,5760,28C5856,28,5952,44,6048,58C6144,72,6240,84,6336,78C6432,72,6528,48,6624,34C6720,20,6816,16,6864,14L6912,12L6912,120L6864,120C6816,120,6720,120,6624,120C6528,120,6432,120,6336,120C6240,120,6144,120,6048,120C5952,120,5856,120,5760,120C5664,120,5568,120,5472,120C5376,120,5280,120,5184,120C5088,120,4992,120,4896,120C4800,120,4704,120,4608,120C4512,120,4416,120,4320,120C4224,120,4128,120,4032,120C3936,120,3840,120,3744,120C3648,120,3552,120,3456,120C3360,120,3264,120,3168,120C3072,120,2976,120,2880,120C2784,120,2688,120,2592,120C2496,120,2400,120,2304,120C2208,120,2112,120,2016,120C1920,120,1824,120,1728,120C1632,120,1536,120,1440,120C1344,120,1248,120,1152,120C1056,120,960,120,864,120C768,120,672,120,576,120C480,120,384,120,288,120C192,120,96,120,48,120L0,120Z"></path></svg>