<svg id="wave" style="transform:rotate(180deg); transition: 0.3s" viewBox="0 0 1440 120" version="1.1" xmlns="http://www.w3.org/2000/svg"><defs><linearGradient id="sw-gradient-0" x1="0" x2="0" y1="1" y2="0"><stop stop-color="rgba(252, 191, 73, 1)" offset="0%"></stop><stop stop-color="rgba(252, 191, 73, 1)" offset="100%"></stop></linearGradient></defs><path style="transform:translate(0, 0px); opacity:1" fill="url(#sw-gradient-0)" d="M0,60L80,58C160,56,320,52,480,60C640,68,800,88,960,96C1120,104,1280,100,1440,84C1600,68,1760,40,1920,40C2080,40,2240,68,2400,70C2560,72,2720,48,2880,46C3040,44,3200,64,3360,76C3520,88,3680,92,3840,80C4000,68,4160,40,4320,40C4480,40,4640,68,4800,76C4960,84,5120,72,5280,74C5440,76,5600,92,5760,88C5920,84,6080,60,6240,54C6400,48,6560,60,6720,64C6880,68,7040,64,7200,64C7360,64,7520,68,7680,74C7840,80,8000,88,8160,90C8320,92,8480,88,8640,74C8800,60,8960,36,9120,22C9280,8,9440,4,9600,6C9760,8,9920,16,10080,18C10240,20,10400,16,10560,24C10720,32,10880,52,11040,68C11200,84,11360,96,11440,102L11520,108L11520,120L11440,120C11360,120,11200,120,11040,120C10880,120,10720,120,10560,120C10400,120,10240,120,10080,120C9920,120,9760,120,9600,120C9440,120,9280,120,9120,120C8960,120,8800,120,8640,120C8480,120,8320,120,8160,120C8000,120,7840,120,7680,120C7520,120,7360,120,7200,120C7040,120,6880,120,6720,120C6560,120,6400,120,6240,120C6080,120,5920,120,5760,120C5600,120,5440,120,5280,120C5120,120,4960,120,4800,120C4640,120,4480,120,4320,120C4160,120,4000,120,3840,120C3680,120,3520,120,3360,120C3200,120,3040,120,2880,120C2720,120,2560,120,2400,120C2240,120,2080,120,1920,120C1760,120,1600,120,1440,120C1280,120,1120,120,960,120C800,120,640,120,480,120C320,120,160,120,80,120L0,120Z"></path></svg>