<svg 
 xmlns="http://www.w3.org/2000/svg"
 xmlns:xlink="http://www.w3.org/1999/xlink"
 width="100px" height="auto" viewBox="0 0 1795 474">
<path fill-rule="evenodd"  fill="rgb(33, 33, 33)"
 d="M1763.719,379.205 C1752.54,393.266 1743.589,401.603 1738.330,404.222 C1723.234,414.469 1708.364,419.590 1693.729,419.590 L1685.838,419.590 C1669.595,419.590 1652.901,414.112 1635.747,403.150 C1611.731,384.332 1599.722,357.762 1599.722,323.454 C1599.722,291.54 1610.15,260.79 1630.600,230.534 C1654.617,199.564 1683.205,184.74 1716.373,184.74 C1752.509,184.74 1776.756,202.423 1789.107,239.111 C1792.994,251.27 1794.940,263.653 1794.940,276.994 L1794.940,282.712 C1794.940,316.306 1784.529,348.470 1763.719,379.205 ZM1725.979,244.472 C1719.803,239.949 1714.196,237.681 1709.168,237.681 L1707.109,237.681 C1695.214,237.681 1681.721,246.381 1666.625,263.770 C1653.812,279.735 1647.412,296.58 1647.412,312.732 L1647.412,315.948 C1647.412,333.583 1654.499,348.353 1668.683,360.264 C1675.545,365.33 1682.519,367.412 1689.612,367.412 L1690.641,367.412 C1706.423,367.412 1720.833,357.405 1733.870,337.392 C1740.957,323.576 1744.506,309.281 1744.506,294.505 C1744.506,274.17 1738.330,257.338 1725.979,244.472 ZM1524.243,244.114 L1523.900,244.114 C1514.749,244.114 1508.916,258.52 1506.402,285.928 C1506.172,291.886 1506.59,296.292 1506.59,299.151 C1506.59,328.937 1510.176,366.222 1518.410,411.13 C1518.410,411.493 1502.55,413.157 1469.349,416.16 C1455.164,334.58 1445.445,271.873 1440.186,229.462 L1440.186,226.245 C1440.411,225.770 1445.332,224.101 1454.939,221.242 C1455.625,220.767 1461.801,218.383 1473.466,214.94 C1473.921,214.94 1475.406,220.767 1477.926,234.108 L1478.269,234.108 C1479.180,223.626 1482.611,213.502 1488.562,203.730 C1494.276,194.203 1503.427,187.413 1516.9,183.359 C1518.979,182.410 1521.498,181.930 1523.557,181.930 L1528.17,181.930 C1545.171,181.930 1562.551,197.537 1580.166,228.747 C1581.764,232.321 1582.568,234.348 1582.568,234.822 L1582.568,235.180 C1572.961,245.667 1561.983,257.103 1549.631,269.489 C1539.794,252.574 1531.330,244.114 1524.243,244.114 ZM1320.448,416.16 C1295.971,416.16 1277.219,409.349 1264.182,396.2 C1255.486,386.951 1249.772,379.205 1247.27,372.773 C1235.587,350.380 1229.873,325.363 1229.873,297.722 L1229.873,294.505 C1229.873,294.31 1229.755,293.556 1229.530,293.76 C1229.755,292.601 1229.873,292.127 1229.873,291.646 L1229.873,288.430 C1229.873,253.887 1238.107,221.599 1254.575,191.579 C1264.182,175.619 1276.533,165.132 1291.629,160.129 C1309.8,155.606 1323.649,153.339 1335.544,153.339 C1373.284,153.339 1392.154,174.307 1392.154,216.238 L1392.154,222.671 C1392.154,257.695 1358.756,291.886 1291.972,325.240 C1292.883,335.727 1296.89,345.494 1301.578,354.546 C1307.979,362.889 1315.527,367.54 1324.222,367.54 L1325.594,367.54 C1344.577,367.54 1363.559,352.882 1382.547,324.526 L1387.693,315.948 C1392.266,316.903 1406.333,320.717 1429.893,327.385 L1429.893,328.100 C1428.977,339.61 1424.517,352.167 1416.513,367.412 C1396.839,399.816 1364.819,416.16 1320.448,416.16 ZM1323.879,251.619 C1338.514,238.279 1345.837,226.368 1345.837,215.881 C1345.837,206.589 1337.946,200.754 1322.164,198.369 L1318.390,198.369 C1306.725,198.369 1297.118,207.784 1289.570,226.603 C1283.620,245.427 1280.650,261.509 1280.650,274.849 C1280.875,274.849 1280.993,274.972 1280.993,275.207 C1293.344,273.303 1307.636,265.440 1323.879,251.619 ZM1192.133,451.40 C1171.548,453.899 1159.883,455.328 1157.138,455.328 L1132.436,286.286 L1132.93,286.286 L1012.355,304.512 L1012.355,304.870 C1012.355,307.254 1014.526,351.212 1018.873,436.744 C1017.726,437.224 1001.488,439.603 970.155,443.892 C968.552,433.651 952.882,304.512 923.152,56.488 C923.152,56.13 937.904,52.82 967.410,44.694 C968.782,51.127 980.790,118.438 1003.434,246.616 C1004.346,246.381 1045.859,240.183 1127.975,228.32 C1113.335,82.700 1106.18,9.196 1106.18,7.526 L1106.361,7.526 L1156.795,0.378 C1157.706,4.907 1172.802,125.820 1202.83,363.123 C1208.944,416.496 1212.375,444.484 1212.375,447.108 L1212.375,448.181 C1212.375,448.895 1205.626,449.845 1192.133,451.40 ZM890.215,409.940 C778.138,421.142 719.925,426.737 715.583,426.737 L715.240,426.737 C714.554,426.737 713.181,415.184 711.123,392.71 C710.892,391.837 709.863,382.662 708.35,364.553 L803.757,222.671 C761.214,214.334 738.227,209.688 734.796,208.733 C741.427,181.812 745.201,167.160 746.118,164.775 C831.204,184.554 874.202,194.678 875.119,195.153 C869.399,228.747 866.311,245.901 865.856,246.616 L764.302,368.484 L764.302,368.841 L764.645,368.841 C766.703,368.841 811.648,365.33 899.478,357.405 C903.821,387.665 905.997,404.462 905.997,407.796 C905.997,408.751 900.733,409.466 890.215,409.940 ZM633.242,423.164 C632.781,420.545 626.37,349.425 613.0,209.805 C644.333,202.183 660.689,198.369 662.61,198.369 C680.588,338.704 690.194,412.85 690.881,418.518 L690.194,418.875 L633.242,423.164 ZM629.125,172.638 C614.29,172.638 604.79,165.15 599.276,149.765 C598.815,147.386 598.590,145.242 598.590,143.332 L598.590,141.903 C598.590,128.322 605.907,118.913 620.547,113.669 C623.748,112.720 626.948,112.240 630.154,112.240 L633.242,112.240 C645.362,112.240 653.484,118.913 657.601,132.253 C658.287,134.163 658.630,136.782 658.630,140.116 L658.630,142.260 C658.630,153.462 653.709,162.396 643.878,169.64 C639.760,171.448 634.839,172.638 629.125,172.638 ZM560.164,441.33 C559.247,440.84 550.327,419.355 533.403,378.848 L533.60,378.848 C533.60,383.137 529.398,388.497 522.81,394.930 C510.186,404.222 491.428,408.868 465.815,408.868 L462.727,408.868 C448.86,408.868 437.794,405.294 431.849,398.147 C420.409,387.425 412.405,367.412 407.833,338.106 C404.857,320.237 403.372,300.581 403.372,279.138 L403.372,265.915 C403.372,239.708 405.88,213.22 408.519,185.861 L408.862,185.861 L454.836,188.5 L455.179,188.720 C459.65,285.694 462.41,334.175 464.99,334.175 C468.902,348.951 476.107,356.333 485.714,356.333 C493.948,356.333 499.780,350.972 503.211,340.251 C504.809,337.872 505.838,320.835 506.299,289.145 C505.838,254.361 505.152,223.866 504.240,197.654 C504.466,197.654 504.584,197.537 504.584,197.297 C537.520,200.156 555.243,201.826 557.762,202.300 L557.762,203.15 C558.904,269.14 560.164,302.11 561.536,302.11 C561.536,307.494 564.849,322.504 571.486,347.41 C578.803,369.439 587.380,390.642 597.217,410.655 C597.673,410.655 598.472,412.325 599.619,415.659 C599.619,415.899 586.464,424.359 560.164,441.33 ZM320.2,369.556 L308.337,377.776 C312.679,384.209 329.951,408.868 360.143,451.754 L360.143,452.827 C332.466,466.407 318.399,473.197 317.943,473.197 C285.7,421.734 268.421,396.2 268.196,396.2 C245.321,402.676 222.790,406.9 200.607,406.9 C153.947,406.9 110.830,394.338 71.263,370.986 C61.195,365.33 49.873,355.975 37.297,343.824 C12.820,317.618 0.586,288.553 0.586,256.623 L0.586,253.406 C0.586,228.155 7.673,199.441 21.858,167.277 C43.129,123.201 77.551,91.394 125.128,71.855 C148.683,63.278 172.13,58.989 195.118,58.989 L197.862,58.989 C234.455,58.989 268.421,69.236 299.760,89.724 C307.533,94.493 318.56,103.662 331.324,117.243 C351.448,141.785 364.373,167.277 370.93,193.723 C373.979,211.592 375.925,227.83 375.925,240.183 L375.925,254.478 C375.925,284.739 367.5,313.212 349.164,339.893 C337.955,354.189 328.236,364.78 320.2,369.556 ZM263.735,131.896 C238.347,120.700 212.154,115.99 185.168,115.99 L184.482,115.99 C139.419,115.99 104.199,129.160 78.811,157.270 C68.743,168.706 61.769,183.839 57.882,202.658 C54.677,215.49 53.79,226.128 53.79,235.894 C53.79,273.62 69.772,305.350 103.170,332.746 C131.303,352.759 160.691,362.766 191.344,362.766 L194.775,362.766 C210.326,362.766 225.765,359.789 241.92,353.831 L182.423,262.341 L182.423,261.984 C199.803,245.69 208.611,236.609 208.841,236.609 L276.773,332.746 L277.116,332.746 C286.722,324.649 295.182,315.591 302.504,305.584 C321.942,276.519 331.667,249.715 331.667,225.173 C331.667,185.386 309.23,154.294 263.735,131.896 Z"/>
</svg>